<?xml version="1.0" encoding="utf-8"?>
<!-- Generator: Adobe Illustrator 16.0.0, SVG Export Plug-In . SVG Version: 6.00 Build 0)  -->
<!DOCTYPE svg PUBLIC "-//W3C//DTD SVG 1.1//EN" "http://www.w3.org/Graphics/SVG/1.1/DTD/svg11.dtd">
<svg version="1.1" id="Layer_1" xmlns="http://www.w3.org/2000/svg" xmlns:xlink="http://www.w3.org/1999/xlink" x="0px" y="0px"
	 width="595.281px" height="594.686px" viewBox="0 0 595.281 594.686" enable-background="new 0 0 595.281 594.686"
	 xml:space="preserve">
<path fill="#C8C8C8" d="M496.244,322.237c-4.603,36.622-19.078,70.106-40.789,97.759l70.063,70.063
	c38.998-46.075,64.179-104.103,69.445-167.815h-98.721L496.244,322.237L496.244,322.237z"/>
<path fill="#C8C8C8" d="M322.523,494.892v99.793c63.735-5.27,121.739-30.448,167.813-69.445l-70.225-70.255
	C392.41,476.32,359.019,490.565,322.523,494.892z"/>
<path fill="#C8C8C8" d="M176.239,453.92l-71.314,71.313c46.068,38.997,104.096,64.177,167.833,69.445V494.493
	C236.624,489.737,203.574,475.366,176.239,453.92z"/>
<path fill="#C8C8C8" d="M101.543,322.237H0.31c5.25,63.714,30.425,121.741,69.421,167.816l71.493-71.518
	C120.157,391.182,106.037,358.222,101.543,322.237z"/>
<path fill="#C8C8C8" d="M141.248,176.126l-71.517-71.493C30.734,150.708,5.56,208.729,0.31,272.471h101.233
	C106.037,236.458,120.157,203.509,141.248,176.126z"/>
<path fill="#C8C8C8" d="M272.757,100.186V0C209.02,5.274,151.016,30.448,104.918,69.452l71.315,71.313
	C203.574,119.312,236.624,104.954,272.757,100.186z"/>
<path fill="#C8C8C8" d="M510.316,215.146l-21.8-21.823l87.209-87.208c24.103-24.104,24.103-63.152,0-87.231
	c-24.08-24.079-63.131-24.079-87.209,0l-87.237,87.231L379.48,84.292c-12.056-12.03-31.593-12.03-43.611,0l0,0
	c-12.055,12.049-12.055,31.562,0,43.616l21.787,21.822L248.631,258.768c-12.031,12.031-22.163,35.598-22.621,52.629l-0.387,14.312
	l5.125,38.146l38.151,5.149l14.334-0.381c17.007-0.466,40.581-10.591,52.64-22.65l109.02-109.032l21.8,21.8
	c12.055,12.056,31.567,12.056,43.623,0l0,0C522.359,246.714,522.359,227.177,510.316,215.146z M314.046,324.177
	c-6.488,6.489-22.454,13.37-31.64,13.614l-1.071,0.023l-24.543-24.52l0.024-1.072c0.268-9.185,7.12-25.174,13.632-31.663
	L379.48,171.53l43.598,43.616L314.046,324.177z"/>
</svg>
