<?xml version="1.0" encoding="utf-8"?>
<!-- Generator: Adobe Illustrator 16.0.0, SVG Export Plug-In . SVG Version: 6.00 Build 0)  -->
<!DOCTYPE svg PUBLIC "-//W3C//DTD SVG 1.1//EN" "http://www.w3.org/Graphics/SVG/1.1/DTD/svg11.dtd">
<svg version="1.1" id="Layer_1" xmlns="http://www.w3.org/2000/svg" xmlns:xlink="http://www.w3.org/1999/xlink" x="0px" y="0px"
	 width="261.922px" height="265.346px" viewBox="0 0 261.922 265.346" enable-background="new 0 0 261.922 265.346"
	 xml:space="preserve">
<g>
	<path fill="#C8C8C8" d="M5.357,214.747c-2.978,0-5.356,2.381-5.356,5.357v39.884c0,2.977,2.381,5.356,5.356,5.356h38.098
		c2.978,0,5.357-2.381,5.357-5.356v-39.884c0-2.978-2.382-5.357-5.357-5.357H5.357z"/>
	<path fill="#C8C8C8" d="M74.409,188.556c-2.977,0-5.357,2.381-5.357,5.356v66.076c0,2.977,2.381,5.356,5.357,5.356h38.098
		c2.978,0,5.357-2.381,5.357-5.356v-66.076c0-2.977-2.381-5.356-5.357-5.356H74.409L74.409,188.556z"/>
	<path fill="#C8C8C8" d="M145.248,155.816c-2.977,0-5.357,2.381-5.357,5.356v98.816c0,2.977,2.381,5.356,5.357,5.356h38.098
		c2.977,0,5.357-2.381,5.357-5.356v-98.816c0-2.977-2.381-5.356-5.357-5.356H145.248z"/>
	<path fill="#C8C8C8" d="M256.564,111.168h-38.098c-2.977,0-5.357,2.382-5.357,5.357v142.867c0,2.977,2.381,5.356,5.357,5.356
		h38.098c2.977,0,5.357-2.381,5.357-5.356V116.527C261.922,114.146,259.541,111.168,256.564,111.168z"/>
	<path fill="#C8C8C8" d="M258.945,76.643L240.492,2.828c0-1.189-1.188-1.786-1.785-2.381c-1.189-0.596-1.787-0.596-2.977,0
		l-75.006,26.191c-1.189,0.596-2.381,1.786-2.381,2.977c0,1.191,0.596,2.978,1.785,3.572l21.432,10.715
		c-17.859,26.192-73.22,98.221-176.798,132.152c-1.787,0.595-2.978,2.381-2.381,4.167c0.594,1.785,1.785,2.977,3.571,2.977h0.595
		c1.787,0,153.582-29.169,221.445-116.08l25.596,13.097c1.191,0.596,2.979,0.596,4.168-0.596
		C258.945,79.024,259.541,77.832,258.945,76.643z"/>
</g>
</svg>
