<?xml version="1.0" encoding="utf-8"?>
<!-- Generator: Adobe Illustrator 16.0.0, SVG Export Plug-In . SVG Version: 6.00 Build 0)  -->
<!DOCTYPE svg PUBLIC "-//W3C//DTD SVG 1.1//EN" "http://www.w3.org/Graphics/SVG/1.1/DTD/svg11.dtd">
<svg version="1.1" id="Layer_1" xmlns="http://www.w3.org/2000/svg" xmlns:xlink="http://www.w3.org/1999/xlink" x="0px" y="0px"
	 width="595.281px" height="595.25px" viewBox="0 0 595.281 595.25" enable-background="new 0 0 595.281 595.25"
	 xml:space="preserve">
<g>
	<path fill="#C8C8C8" d="M94.463,595.251H37.13C16.649,595.251,0,578.583,0,558.12V353.343c0-20.463,16.649-37.131,37.13-37.131
		h73.089c10.307,0,20.222,4.334,27.234,11.904c7.013,7.554,10.566,17.804,9.785,28.071l-15.756,204.814
		C129.994,580.181,113.736,595.251,94.463,595.251L94.463,595.251z M94.463,558.045v18.603V558.045z M110.127,353.324l-72.997,0.093
		l0.075,204.703l57.203-0.074L110.127,353.324z M334.846,576.647c-60.625,0-127.074-12.946-177.711-34.655l-47.306-20.277
		c-9.431-4.055-13.822-14.993-9.766-24.406c4.018-9.45,14.975-13.896,24.425-9.767l47.306,20.276
		C218.04,527.611,279,539.442,334.846,539.442c71.713,0,128.859-24.332,201.725-58.672c19.961-9.395,21.506-19.439,21.506-22.305
		c0-3.963-1.172-7.145-3.498-9.487c-2.939-2.938-17.598-3.516-39.641,4.632c-4.689,1.749-9.283,3.237-14.121,4.466
		c-62.635,16.146-149.191,19.588-215.36,8.557c-9.971-1.655-16.78-10.977-15.347-20.983c1.433-10.007,10.398-17.113,20.63-15.85
		c36.46,4.372,66.112,3.721,90.612-2.046c8.594-1.283,13.84-7.366,13.84-14.38c0-7.255-5.32-13.171-12.648-14.082
		c-35.68-4.392-81.033-10.642-125.864-21.394c-9.841-2.362-31.811-5.879-52.051-5.879c-24.853,0-40.943,6.214-67.248,17.17
		c-9.469,3.981-20.37-0.539-24.332-10.008c-3.962-9.487,0.521-20.39,10.009-24.332c29.913-12.464,50.319-20.035,81.571-20.035
		c21.971,0,46.897,3.571,60.737,6.901c43.01,10.323,87.004,16.389,120.525,20.537c27.029,3.349,46.488,25.263,46.488,51.139
		c0,6.827-1.357,13.413-3.869,19.458c22.621-2.307,44.162-5.896,63.006-10.771c3.59-0.931,7.031-2.046,10.529-3.35
		c20.369-7.553,57.742-17.096,78.838,3.963c9.301,9.319,14.398,22.007,14.398,35.772c0,10.752-4.188,37.726-42.861,55.938
		C490.566,543.591,420.455,576.647,334.846,576.647z M469.9,334.814l-3.963-0.428c-2.717-0.577-66.709-14.696-115.818-38.657
		c-143.78-70.149-91.358-273.345-89.07-281.958c2.438-9.115,11.292-14.863,20.649-13.599
		c150.438,21.896,204.46,85.46,223.249,121.399c43.566,83.266-16.055,198.434-18.621,203.308
		C483.09,331.075,476.689,334.814,469.9,334.814L469.9,334.814z M293.548,39.74c-8.39,46.004-22.546,175.98,72.886,222.542
		c31.809,15.516,71.99,26.881,93.049,32.275c12.873-29.689,39.68-103.857,12.539-155.759
		C457.176,110.448,414.428,61.078,293.548,39.74z M490.252,459.135c-10.289,0-18.604-8.315-18.604-18.603
		c0-152.151-107.746-278.295-108.846-279.56c-6.715-7.758-5.877-19.515,1.898-26.249c7.719-6.715,19.494-5.878,26.229,1.879
		c4.818,5.563,117.922,138.05,117.922,303.911C508.854,450.802,500.539,459.135,490.252,459.135L490.252,459.135z"/>
</g>
</svg>
