<?xml version="1.0" encoding="utf-8"?>
<!-- Generator: Adobe Illustrator 16.0.0, SVG Export Plug-In . SVG Version: 6.00 Build 0)  -->
<!DOCTYPE svg PUBLIC "-//W3C//DTD SVG 1.1//EN" "http://www.w3.org/Graphics/SVG/1.1/DTD/svg11.dtd">
<svg version="1.1" id="Layer_1" xmlns="http://www.w3.org/2000/svg" xmlns:xlink="http://www.w3.org/1999/xlink" x="0px" y="0px"
	 width="549.649px" height="527.154px" viewBox="0 0 549.649 527.154" enable-background="new 0 0 549.649 527.154"
	 xml:space="preserve">
<path fill="#C8C8C8" d="M437.86,203.058c2.646-11.245,3.971-23.813,3.971-35.719c0-92.599-74.74-167.34-166.679-167.34
	c-91.938,0-166.679,74.741-166.679,166.68c0,12.566,1.323,24.473,3.969,35.717C46.96,225.545-0.001,287.719-0.001,360.475
	c0,91.939,74.741,166.68,167.34,166.68c41.008,0,78.709-15.213,107.812-39.686c29.105,25.135,66.804,39.686,107.814,39.686
	c91.938,0,166.678-74.74,166.678-166.68C550.303,287.719,503.344,225.546,437.86,203.058z M145.512,166.679
	c0-70.772,58.205-128.979,129.639-128.979c71.435,0,129.64,58.205,129.64,129.64c0,9.261-1.322,18.521-3.309,27.779
	c-5.953-0.661-11.904-1.323-18.52-1.323c-41.01,0-78.709,15.214-107.813,39.687c-29.103-25.134-66.804-39.687-107.812-39.687
	c-5.953,0-12.567,0.662-18.52,1.323C146.835,185.861,145.512,176.601,145.512,166.679z M296.317,360.475
	c0,26.457-7.938,50.93-21.166,70.773c-13.229-20.506-21.166-44.979-21.166-70.773c0-9.26,1.323-18.52,3.308-27.779
	c5.952,0.662,11.905,1.322,18.52,1.322c5.951,0,12.566-0.66,18.521-1.322C295.655,341.956,296.317,351.218,296.317,360.475z
	 M275.151,296.317c-1.323,0-2.646,0-3.968,0c1.322-2.646,2.646-4.629,3.968-6.613c1.322,1.984,2.646,4.629,3.97,6.613
	C277.799,296.317,276.473,296.317,275.151,296.317z M232.158,289.042c-29.764-10.582-54.236-31.086-69.449-57.543
	c1.323,0,2.646,0,3.969,0c31.087,0,60.189,11.244,82.678,29.766C242.741,269.2,237.45,279.122,232.158,289.042z M300.946,260.601
	c22.488-18.521,50.932-29.765,82.68-29.765c1.322,0,2.645,0,3.969,0c-15.213,26.457-39.688,47.622-69.449,57.543
	C312.852,279.122,307.561,269.2,300.946,260.601z M37.7,360.475c0-56.221,36.378-104.504,86.646-121.701
	c19.181,40.347,53.575,71.433,95.906,85.984c-2.646,11.244-3.969,23.813-3.969,35.717c0,37.041,12.567,72.096,33.071,99.875
	c-22.488,18.521-50.93,29.766-82.678,29.766C95.906,490.116,37.7,431.909,37.7,360.475z M382.965,490.116
	c-31.088,0-60.189-11.246-82.678-29.766c20.504-27.779,33.068-62.174,33.068-99.875c0-12.566-1.32-24.473-3.969-35.717
	c42.332-14.551,76.725-46.301,95.906-85.984c50.268,17.857,86.646,65.48,86.646,121.701
	C512.602,431.909,454.397,490.116,382.965,490.116z"/>
</svg>
