<?xml version="1.0" encoding="utf-8"?>
<!-- Generator: Adobe Illustrator 16.0.0, SVG Export Plug-In . SVG Version: 6.00 Build 0)  -->
<!DOCTYPE svg PUBLIC "-//W3C//DTD SVG 1.1//EN" "http://www.w3.org/Graphics/SVG/1.1/DTD/svg11.dtd">
<svg version="1.1" id="Layer_1" xmlns="http://www.w3.org/2000/svg" xmlns:xlink="http://www.w3.org/1999/xlink" x="0px" y="0px"
	 width="553.61px" height="357.168px" viewBox="0 0 553.61 357.168" enable-background="new 0 0 553.61 357.168"
	 xml:space="preserve">
<path fill="#C8C8C8" d="M523.25,150.604l-41.668-76.196c-2.977-5.951-8.93-9.523-15.479-9.523h-92.268
	C373.241,29.168,344.073,0,308.356,0H65.48C29.168,0,0,29.168,0,65.479V257.16c0,29.764,23.811,53.576,53.575,53.576h2.381
	c7.144,27.383,32.146,46.432,61.314,46.432c29.169,0,53.575-19.645,61.314-46.432h207.752c7.146,27.383,32.146,46.432,61.314,46.432
	s53.574-19.645,61.314-46.432h2.977c23.215,0,41.668-18.455,41.668-41.67v-78.578C553.612,172.033,541.112,155.367,523.25,150.604z
	 M373.836,148.818v-47.621h81.553l26.193,47.621H373.836z M447.653,322.045c-15.479,0-27.98-12.5-27.98-27.979
	s12.502-27.979,27.98-27.979c15.477,0,27.979,12.5,27.979,27.979S463.127,322.045,447.653,322.045z M511.942,275.613h-3.57
	c-8.334-26.193-32.74-44.646-60.719-44.646c-27.385,0-52.387,18.453-60.721,44.646h-13.096v-91.078h138.105
	c3.57,0,5.951,2.381,5.951,5.953v79.172C517.893,272.637,514.917,275.613,511.942,275.613z M117.271,322.045
	c-15.477,0-27.978-12.5-27.978-27.979s12.501-27.979,27.978-27.979c15.478,0,27.978,12.5,27.978,27.979
	S132.749,322.045,117.271,322.045z M65.48,36.311h242.875c16.666,0,29.764,13.098,29.764,29.764v209.539H177.395
	c-8.334-26.193-32.741-44.646-60.719-44.646c-27.383,0-52.385,18.453-60.719,44.646h-3.572c-10.12,0-17.858-7.738-17.858-17.859
	V66.074C35.717,49.406,48.813,36.311,65.48,36.311z"/>
</svg>
