<?xml version="1.0" encoding="utf-8"?>
<!-- Generator: Adobe Illustrator 16.0.0, SVG Export Plug-In . SVG Version: 6.00 Build 0)  -->
<!DOCTYPE svg PUBLIC "-//W3C//DTD SVG 1.1//EN" "http://www.w3.org/Graphics/SVG/1.1/DTD/svg11.dtd">
<svg version="1.1" id="Layer_1" xmlns="http://www.w3.org/2000/svg" xmlns:xlink="http://www.w3.org/1999/xlink" x="0px" y="0px"
	 width="165.598px" height="161.434px" viewBox="0 0 165.598 161.434" enable-background="new 0 0 165.598 161.434"
	 xml:space="preserve">
<g>
	<path fill="#DA1C5C" d="M75.641,104.123l-43.454-0.081L0,159.091c2.569,1.37,5.385,2.206,7.934,2.211l90.57,0.169
		c2.778,0.002,5.883-0.976,8.633-2.56c2.746-1.576,5.157-3.766,6.547-6.167l45.438-78.352c0.912-1.588,1.521-4.69,1.838-6.718
		l-64.229,0.073L75.641,104.123z"/>
	<path fill="#DA1C5C" d="M89.816,57.373l43.451,0.195l32.33-54.958c-2.563-1.376-5.375-2.226-7.927-2.234L67.107-0.037
		c-2.788-0.013-5.882,0.957-8.64,2.534c-2.762,1.574-5.168,3.754-6.573,6.152L6.255,86.874c-0.925,1.585-1.536,4.69-1.863,6.713
		l64.233,0.104L89.816,57.373z"/>
</g>
</svg>
